<?xml version="1.0" ?><svg enable-background="new 0 0 512 512" height="512px" id="Layer_1" version="1.1" viewBox="0 0 512 512" width="512px" xml:space="preserve" xmlns="http://www.w3.org/2000/svg" xmlns:xlink="http://www.w3.org/1999/xlink"><g><path d="M275.5,215.9c-10.8-10.8-28.2-10.8-39,0h0c-10.8,10.8-10.8,28.2,0,39h0c10.8,10.8,28.2,10.8,39,0h0   C286.3,244.1,286.3,226.7,275.5,215.9L275.5,215.9z" fill="#231F20"/><path d="M322.3,154.8H189.8c-19.3,0-35,15.7-35,35v132.5c0,19.3,15.7,35,35,35h132.5c19.3,0,35-15.7,35-35V189.8   C357.3,170.5,341.5,154.8,322.3,154.8z M302.6,267.8L256,334.1l-46.6-66.3c-16-22.7-13.3-53.5,6.3-73.1v0   c22.3-22.3,58.4-22.3,80.7,0v0C315.9,214.2,318.6,245.1,302.6,267.8z" fill="#231F20"/></g></svg>