<?xml version="1.0" encoding="utf-8"?>
<!-- Generator: Adobe Illustrator 21.1.0, SVG Export Plug-In . SVG Version: 6.00 Build 0)  -->
<svg version="1.1" id="type" xmlns="http://www.w3.org/2000/svg" xmlns:xlink="http://www.w3.org/1999/xlink" x="0px" y="0px"
	 viewBox="0 0 247 36" style="enable-background:new 0 0 247 36;" xml:space="preserve">
<style type="text/css">
	.st0{fill:#F3E600;}
	.st1{fill:#1F140F;}
</style>
<polygon class="st0" points="210.5,3 210,3 200.6,3 200,3 164.1,3 163.6,3 127.1,3 122.5,12.9 122.5,12.9 115.5,28 0.6,28 0,29.9 
	114.6,29.9 113.1,33 149.6,33 150.2,33 186,33 186.6,33 196,33 196.6,33 233,33 247,3 "/>
<g id="ano">
	<path class="st1" d="M115.9,31.3l7.7-16.6h26.5l1.6-3.3h-26.5l3.1-6.6h33.1l-7.7,16.6h-26.5l-1.6,3.3h26.5l-3.1,6.6H115.9z"/>
	<path class="st1" d="M152.4,31.3l12.3-26.5h33.1l-12.4,26.5H152.4z M181.9,24.6l6.2-13.3h-19.9l-6.2,13.3H181.9z"/>
	<path class="st1" d="M188.8,31.3l12.3-26.5h6.6l-12.4,26.5H188.8z"/>
	<path class="st1" d="M198.8,31.3l12.3-26.5h33.1l-12.4,26.5H198.8z M228.3,24.6l1.6-3.3H210l-1.6,3.3H228.3z M233,14.7l1.6-3.3
		h-19.9l-1.6,3.3H233z"/>
</g>
<g id="linha">
	<path class="st1" d="M0,25.3L8.9,6.1h4.8L7,20.5h19.1l-2.2,4.8H0z"/>
	<path class="st1" d="M25.9,25.3l8.9-19.1h4.8l-8.9,19.1H25.9z"/>
	<path class="st1" d="M32.7,25.3l8.9-19.1h23.9l-8.9,19.1h-4.8l6.7-14.4H44.2l-6.7,14.4H32.7z"/>
	<path class="st1" d="M58.7,25.3l8.9-19.1h4.8L69,13.3h14.4l3.3-7.2h4.8l-8.9,19.1h-4.8l3.3-7.2H66.8l-3.3,7.2H58.7z"/>
	<path class="st1" d="M84.6,25.3l6.7-14.4l7-4.8h19.1l-8.9,19.1h-4.8l3.3-7.2H92.7l-3.3,7.2H84.6z M109.3,13.3l1.1-2.4h-12L95,13.3
		H109.3z"/>
</g>
<g>
</g>
<g>
</g>
<g>
</g>
<g>
</g>
<g>
</g>
<g>
</g>
<g>
</g>
<g>
</g>
<g>
</g>
<g>
</g>
<g>
</g>
<g>
</g>
<g>
</g>
<g>
</g>
<g>
</g>
</svg>
