<?xml version="1.0" encoding="utf-8"?>
<!-- Generator: Adobe Illustrator 21.1.0, SVG Export Plug-In . SVG Version: 6.00 Build 0)  -->
<svg version="1.1" id="type" xmlns="http://www.w3.org/2000/svg" xmlns:xlink="http://www.w3.org/1999/xlink" x="0px" y="0px"
	 viewBox="0 0 36 36" style="enable-background:new 0 0 36 36;" xml:space="preserve">
<g>
	<path class="fill" d="M16.4,0.1c-0.9,0.1-1.8,0.2-2.7,0.4l1.3,8.8c0.5,3.1-0.1,7.1-1.1,9.6c-1.4,3.4-5.1,10.6-6.6,13.6c2.1,1.5,4.5,2.6,7.1,3.1
		c0.4-4.2,1.9-18,2-21.3V0.1z"/>
	<path class="fill" d="M22.3,0.5c-0.9-0.2-1.8-0.4-2.7-0.4v14.2c0.1,3.2,1.5,17,2,21.3c2.6-0.5,5-1.6,7.1-3.2c-1.6-3-5.3-10.2-6.6-13.5
		c-1-2.5-1.6-6.5-1.1-9.6L22.3,0.5z"/>
	<path class="fill" d="M26.1,17.6c-1.9-2.6-3.2-5.5-2.1-9.7l1.6-6.2c-1-0.5-2-0.8-3-1.1l-0.5,8.7c-0.2,3.2,0.3,5.9,1.1,8.4
		c0.3,1.1,0.9,2.9,1.8,4.8c2.7,6.5,2.4,5.5,4.2,9.6c1.9-1.5,3.5-3.3,4.6-5.4C31.8,24.7,28.2,20.5,26.1,17.6z"/>
	<path class="fill" d="M24.5,7.9c-0.7,4.4,0.8,7,2.8,9.7c0.8,1,1.7,2.3,2.7,3.6c1.6,2.1,3.1,4,4,5.2C35.2,23.9,36,21,36,18
		c0-7.1-4.1-13.3-10.1-16.2L24.5,7.9z"/>
	<path class="fill" d="M6.2,21.2c1-1.3,1.9-2.5,2.7-3.6c1.9-2.6,3.5-5.3,2.8-9.7l-1.4-6.1C4.2,4.7,0,10.9,0,18c0,3.1,0.8,6,2.1,8.5
		C3.1,25.3,4.5,23.4,6.2,21.2z"/>
	<path class="fill" d="M18.5,17.2c-0.3-2.5-0.1-4.1,0.1-6.7l0.7-10.5c-0.4,0-0.8,0-1.3,0c-0.4,0-0.8,0-1.2,0l0.7,10.5c0.2,2.6,0.3,4.1,0.1,6.7
		c-0.2,1.7-2,14-2.7,18.4c1,0.2,2.1,0.3,3.2,0.3c1.1,0,2.2-0.1,3.2-0.3C20.6,31.2,18.7,19,18.5,17.2z"/>
	<path class="fill" d="M11.2,22.5c0.8-1.9,1.4-3.7,1.8-4.8c0.8-2.6,1.3-5.2,1.1-8.4l-0.5-8.7c-1.1,0.3-2.1,0.6-3,1.1l1.6,6.2
		c1.1,4.2-0.2,7-2.1,9.7c-2.1,2.9-5.8,7.1-7.6,9.2c1.2,2.1,2.8,3.9,4.7,5.4C8.8,28.1,8.5,29,11.2,22.5z"/>
</g>
<g>
</g>
<g>
</g>
<g>
</g>
<g>
</g>
<g>
</g>
<g>
</g>
<g>
</g>
<g>
</g>
<g>
</g>
<g>
</g>
<g>
</g>
<g>
</g>
<g>
</g>
<g>
</g>
<g>
</g>
</svg>
