<?xml version="1.0" encoding="utf-8"?>
<svg version="1.1" id="type" xmlns="http://www.w3.org/2000/svg" xmlns:xlink="http://www.w3.org/1999/xlink" x="0px" y="0px"
	 viewBox="0 0 247 36" style="enable-background:new 0 0 247 36;" xml:space="preserve">
<style type="text/css">
	.st0{fill-rule:evenodd;clip-rule:evenodd;fill:#ffffff}.fill{fill: #ffffff}
</style>
<g>
	<g>
		<path class="fill" d="M16,0.1c-0.9,0.1-1.8,0.2-2.7,0.4l1.3,8.8c0.5,3.1-0.1,7.1-1.1,9.6c-1.4,3.4-5.1,10.6-6.6,13.6C9,34,11.4,35.1,14,35.6
			c0.4-4.2,1.9-18,2-21.3V0.1z"/>
		<path class="fill" d="M22.7,0.5c-0.9-0.2-1.8-0.4-2.7-0.4v14.2c0.1,3.2,1.5,17,2,21.3c2.6-0.5,5-1.6,7.1-3.2c-1.6-3-5.3-10.2-6.6-13.5
			c-1-2.5-1.6-6.5-1.1-9.6L22.7,0.5z"/>
		<path class="fill" d="M26.1,17.6c-1.9-2.6-3.2-5.5-2.1-9.7l1.6-6.2c-1-0.5-2-0.8-3-1.1l-0.5,8.7c-0.2,3.2,0.3,5.9,1.1,8.4
			c0.3,1.1,0.9,2.9,1.8,4.8c2.7,6.5,2.4,5.5,4.2,9.6c1.9-1.5,3.5-3.3,4.6-5.4C31.8,24.7,28.2,20.5,26.1,17.6z"/>
		<path class="fill" d="M24.5,7.9c-0.7,4.4,0.8,7,2.8,9.7c0.8,1,1.7,2.3,2.7,3.6c1.6,2.1,3.1,4,4,5.2c1.2-2.5,2-5.4,2-8.4
			c0-7.1-4.1-13.3-10.1-16.2L24.5,7.9z"/>
		<path class="fill" d="M6.2,21.2c1-1.3,1.9-2.5,2.7-3.6c1.9-2.6,3.5-5.3,2.8-9.7l-1.4-6.1C4.2,4.7,0,10.9,0,18c0,3.1,0.8,6,2.1,8.5
			C3.1,25.3,4.5,23.4,6.2,21.2z"/>
		<path class="fill" d="M18.5,17.2c-0.3-2.5-0.1-4.1,0.1-6.7L19.3,0c-0.4,0-0.8,0-1.3,0c-0.4,0-0.8,0-1.2,0l0.7,10.5c0.2,2.6,0.3,4.1,0.1,6.7
			c-0.2,1.7-2,14-2.7,18.4c1,0.2,2.1,0.3,3.2,0.3s2.2-0.1,3.2-0.3C20.6,31.2,18.7,19,18.5,17.2z"/>
		<path class="fill" d="M11.2,22.5c0.8-1.9,1.4-3.7,1.8-4.8c0.8-2.6,1.3-5.2,1.1-8.4l-0.5-8.7c-1.1,0.3-2.1,0.6-3,1.1l1.6,6.2
			c1.1,4.2-0.2,7-2.1,9.7c-2.1,2.9-5.8,7.1-7.6,9.2c1.2,2.1,2.8,3.9,4.7,5.4C8.8,28.1,8.5,29,11.2,22.5z"/>
	</g>
	<g>
	</g>
	<g>
	</g>
	<g>
	</g>
	<g>
	</g>
	<g>
	</g>
	<g>
	</g>
	<g>
	</g>
	<g>
	</g>
	<g>
	</g>
	<g>
	</g>
	<g>
	</g>
	<g>
	</g>
	<g>
	</g>
	<g>
	</g>
	<g>
	</g>
</g>
<g>
	<g>
		<polygon class="st0" points="44.7,28.4 46.5,25.4 46.6,25.3 46.8,25.1 46.9,25 47.1,24.9 47.3,24.8 47.5,24.8 47.7,24.7 
			47.9,24.7 48.1,24.6 48.3,24.6 48.5,24.6 66.2,24.6 66.4,24.6 66.7,24.6 66.8,24.5 66.9,24.5 67,24.5 67.3,24.5 67.5,24.4 
			67.7,24.4 67.9,24.3 68.1,24.2 68.4,24.1 68.5,24 68.6,24 68.7,23.9 68.8,23.9 68.9,23.8 69,23.7 69,23.7 69.1,23.6 69.2,23.5 
			69.3,23.5 69.3,23.4 69.4,23.3 69.5,23.2 70.7,21.2 54.9,18 54.7,17.9 54.3,17.8 54.2,17.8 54,17.7 53.8,17.6 53.5,17.5 
			53.4,17.4 53.3,17.3 53.2,17.2 53.1,17.1 53,17 52.9,16.9 52.8,16.8 52.7,16.7 52.6,16.5 52.6,16.4 52.5,16.2 52.5,16.1 52.5,16 
			52.5,15.9 52.5,15.7 52.6,15.5 52.6,15.5 52.6,15.4 52.7,15.2 52.7,15.1 54.7,12 54.7,11.9 54.8,11.7 54.9,11.6 55,11.5 
			55.1,11.4 55.4,11.1 55.5,11 55.6,10.9 55.9,10.7 56.3,10.4 56.5,10.3 56.6,10.2 56.9,10 57.1,9.9 57.2,9.8 57.4,9.7 57.7,9.5 
			57.9,9.4 58.1,9.3 58.3,9.3 58.7,9.1 58.9,9 59.2,8.9 59.4,8.8 59.6,8.8 60,8.6 60.3,8.6 60.7,8.5 60.9,8.4 61.1,8.3 61.3,8.3 
			62,8.2 62.4,8.1 63.1,8 63.3,7.9 63.8,7.9 64.3,7.8 65,7.8 65.2,7.8 65.4,7.8 65.7,7.7 66.1,7.7 85.3,7.7 83.6,10.6 83.5,10.7 
			83.4,10.8 83.3,10.9 83.2,11 83,11.1 82.9,11.2 82.8,11.2 82.6,11.3 82.5,11.3 82.3,11.4 82.1,11.4 81.9,11.4 81.6,11.5 
			64.9,11.5 64.7,11.5 64.4,11.5 64.3,11.5 64,11.6 63.9,11.6 63.6,11.7 63.3,11.7 63.2,11.8 63.2,11.8 63,11.8 62.9,11.9 
			62.8,11.9 62.7,12 62.5,12.1 62.4,12.1 62.3,12.2 62.3,12.2 62.2,12.3 62.1,12.3 62,12.5 61.9,12.5 61.9,12.6 61.7,12.7 
			60.4,14.9 76.1,18 76.3,18.1 76.7,18.2 77,18.3 77.2,18.4 77.5,18.5 77.7,18.7 77.9,18.9 78,19 78.1,19.1 78.2,19.2 78.3,19.4 
			78.4,19.6 78.5,19.7 78.5,19.9 78.5,20 78.5,20.2 78.5,20.3 78.5,20.4 78.4,20.6 78.4,20.7 78.3,20.8 78.3,20.9 76.5,23.8 
			76.4,23.9 76.2,24.3 76,24.4 75.9,24.5 75.8,24.6 75.7,24.8 75.6,24.9 75.3,25.1 75.2,25.2 75.1,25.3 74.9,25.5 74.8,25.5 
			74.6,25.6 74.5,25.8 74.3,25.9 74,26 73.8,26.2 73.7,26.2 73.3,26.4 73.2,26.5 73,26.6 72.6,26.8 72.3,26.9 71.8,27.1 71.5,27.2 
			71,27.4 70.8,27.4 70.6,27.5 70.4,27.6 70.2,27.6 70,27.7 69.8,27.7 69.5,27.8 69.1,27.9 68.7,28 68.4,28 67.8,28.1 67.5,28.2 
			67.1,28.2 66.6,28.3 66.3,28.3 65.9,28.3 65.4,28.3 65.1,28.4 		"/>
		<polygon class="st0" points="167.7,28.3 169.5,25.3 169.6,25.2 169.8,25 169.9,25 170.1,24.8 170.4,24.7 170.7,24.6 170.9,24.6 
			171.1,24.6 171.3,24.5 171.5,24.5 189.2,24.5 189.4,24.5 189.7,24.5 189.8,24.5 189.9,24.5 190,24.4 190.3,24.4 190.5,24.3 
			190.7,24.3 190.9,24.2 191.1,24.1 191.4,24 191.5,24 191.6,23.9 191.7,23.8 191.8,23.8 191.9,23.7 192,23.7 192,23.6 192.1,23.5 
			192.2,23.5 192.3,23.4 192.3,23.3 192.4,23.3 192.5,23.1 193.7,21.1 177.8,17.9 177.6,17.9 177.3,17.8 177.2,17.7 177,17.6 
			176.8,17.6 176.5,17.4 176.4,17.3 176.3,17.3 176.2,17.2 176.1,17.1 175.9,16.9 175.8,16.8 175.7,16.7 175.6,16.5 175.6,16.3 
			175.5,16.2 175.5,16 175.5,15.9 175.5,15.8 175.5,15.6 175.5,15.5 175.6,15.4 175.6,15.3 175.7,15.2 175.7,15.1 177.6,11.9 
			177.7,11.8 177.8,11.7 177.9,11.5 178,11.4 178.1,11.3 178.4,11.1 178.5,11 178.6,10.8 178.9,10.6 179.3,10.3 179.5,10.2 
			179.6,10.1 179.9,9.9 180.1,9.8 180.3,9.7 180.4,9.6 180.7,9.5 180.9,9.4 181.1,9.3 181.3,9.2 181.6,9 181.8,9 182.2,8.8 
			182.4,8.8 182.6,8.7 183,8.6 183.3,8.5 183.7,8.4 183.9,8.3 184.1,8.3 184.3,8.2 185,8.1 185.4,8 186.1,7.9 186.3,7.9 186.8,7.8 
			187.3,7.8 188,7.7 188.2,7.7 188.4,7.7 188.7,7.7 189.1,7.7 208.3,7.7 206.6,10.5 206.5,10.6 206.4,10.8 206.3,10.9 206.2,10.9 
			206,11 205.9,11.1 205.8,11.1 205.6,11.2 205.5,11.3 205.3,11.3 205.1,11.3 204.9,11.4 204.6,11.4 187.9,11.4 187.7,11.4 
			187.4,11.5 187.3,11.5 187,11.5 186.9,11.6 186.6,11.6 186.3,11.7 186.3,11.7 186.2,11.7 186,11.8 185.9,11.8 185.8,11.9 
			185.7,11.9 185.5,12 185.4,12.1 185.3,12.1 185.3,12.1 185.2,12.2 185.1,12.3 185,12.4 184.9,12.5 184.9,12.5 184.7,12.7 
			183.4,14.9 199.1,17.9 199.3,18 199.7,18.1 200,18.2 200.2,18.3 200.5,18.5 200.7,18.6 200.9,18.8 201,18.9 201.1,19 201.2,19.2 
			201.3,19.3 201.4,19.5 201.4,19.6 201.5,19.8 201.5,19.9 201.5,20.1 201.5,20.3 201.5,20.3 201.4,20.5 201.4,20.7 201.3,20.8 
			201.2,20.9 199.5,23.7 199.4,23.9 199.2,24.2 199,24.3 198.9,24.5 198.8,24.6 198.7,24.7 198.6,24.8 198.3,25 198.2,25.1 
			198,25.3 197.9,25.4 197.8,25.5 197.6,25.6 197.5,25.7 197.3,25.8 197,26 196.8,26.1 196.7,26.2 196.3,26.4 196.2,26.5 196,26.5 
			195.6,26.7 195.2,26.9 194.8,27 194.5,27.2 194,27.3 193.8,27.4 193.6,27.5 193.4,27.5 193.2,27.6 193,27.6 192.8,27.7 
			192.5,27.7 192.1,27.8 191.7,27.9 191.4,28 190.8,28.1 190.5,28.1 190,28.2 189.6,28.2 189.3,28.2 188.9,28.3 188.4,28.3 
			188.1,28.3 		"/>
		<polygon class="st0" points="99.3,19.9 114.5,19.9 114.9,19.8 115.2,19.8 115.4,19.7 115.6,19.7 115.7,19.6 115.8,19.6 
			115.9,19.5 116.1,19.4 116.2,19.4 116.3,19.3 116.5,19.1 116.5,19 118.3,16.1 101.6,16.1 		"/>
		<polygon class="st0" points="114,25.2 113.9,25.1 113.7,25 113.6,24.9 113.5,24.8 113.2,24.7 112.9,24.6 112.6,24.6 112.4,24.6 
			96.8,24.6 96.6,24.6 96.4,24.5 96.3,24.5 96.2,24.5 96.2,24.5 96.1,24.5 96,24.4 95.9,24.4 95.9,24.4 95.8,24.4 95.7,24.3 
			95.7,24.3 95.7,24.2 95.7,24.2 95.7,24.1 95.7,24.1 95.6,24 95.6,24 95.7,23.9 95.7,23.9 95.7,23.8 95.7,23.7 95.8,23.7 
			96.7,22.1 96.8,22 98.1,19.9 98.1,19.9 100.4,16.1 100.4,16.1 102.4,12.9 102.4,12.8 102.5,12.7 105.5,7.8 104.9,7.8 104.1,7.9 
			103.9,8 103.4,8.1 103.2,8.1 103,8.1 102.5,8.2 102.2,8.3 102.1,8.4 101.8,8.4 101.6,8.5 101.4,8.6 101.2,8.6 101,8.7 100.7,8.7 
			100.5,8.8 100.1,9 99.9,9.1 99.5,9.2 99.3,9.3 99.1,9.4 98.7,9.6 98.5,9.7 98.1,9.8 97.8,10 97.6,10.1 97.3,10.3 97,10.6 
			96.8,10.7 96.5,10.9 96.4,11 96.1,11.2 95.9,11.5 95.7,11.6 95.4,11.9 95.3,12.1 95.2,12.2 95.1,12.3 95,12.5 88.5,23.1 
			88.4,23.3 88.4,23.4 88.3,23.6 88.2,23.8 88.2,24 88.1,24.1 88.1,24.3 88.1,24.5 88.1,24.7 88.1,24.9 88.1,25 88.2,25.2 
			88.2,25.4 88.3,25.6 88.4,25.8 88.5,25.9 88.6,26 88.7,26.1 88.8,26.3 88.9,26.4 89,26.5 89.2,26.7 89.4,26.8 89.5,26.9 89.7,27 
			89.9,27.2 90.1,27.3 90.3,27.3 90.4,27.4 90.7,27.6 90.9,27.6 91.1,27.7 91.3,27.8 91.5,27.8 91.7,27.9 91.9,27.9 92.1,28 
			92.3,28 92.5,28.1 92.7,28.1 92.9,28.1 93.3,28.2 93.8,28.3 94,28.3 94.7,28.3 95,28.3 95.2,28.3 112.5,28.3 114,25.9 114.1,25.7 
			114.1,25.5 114,25.3 		"/>
		<polygon class="st0" points="106.8,7.7 106.7,7.7 104.3,11.7 104.4,11.7 104.6,11.6 104.9,11.6 105,11.5 105.1,11.5 105.2,11.5 
			105.5,11.5 105.7,11.5 121.3,11.5 121.6,11.4 121.7,11.4 121.9,11.4 122,11.4 122.2,11.3 122.4,11.3 122.5,11.2 122.8,11.1 
			122.9,11 123.1,10.9 123.3,10.7 123.3,10.6 125.1,7.7 		"/>
		<polygon class="st0" points="221.3,19.8 236.5,19.8 236.9,19.8 237.2,19.7 237.4,19.7 237.6,19.6 237.7,19.6 237.8,19.5 
			237.9,19.5 238.1,19.4 238.2,19.3 238.3,19.2 238.5,19 238.5,18.9 240.3,16.1 223.6,16.1 		"/>
		<polygon class="st0" points="236,25.1 235.9,25.1 235.7,24.9 235.6,24.8 235.5,24.8 235.1,24.6 234.8,24.6 234.6,24.5 234.4,24.5 
			218.8,24.5 218.6,24.5 218.4,24.5 218.3,24.5 218.2,24.5 218.2,24.5 218.1,24.4 218,24.4 217.9,24.3 217.8,24.3 217.8,24.3 
			217.7,24.2 217.7,24.2 217.7,24.2 217.7,24.1 217.7,24.1 217.6,24 217.6,23.9 217.6,23.9 217.6,23.9 217.7,23.8 217.7,23.8 
			217.7,23.7 217.8,23.6 218.7,22 218.8,22 220.1,19.8 222.4,16.1 222.4,16.1 224.3,12.8 224.4,12.7 224.5,12.7 227.5,7.7 
			226.9,7.8 226.1,7.9 225.9,7.9 225.4,8 225.2,8 225,8.1 224.5,8.2 224.2,8.2 224.1,8.3 223.8,8.4 223.6,8.4 223.4,8.5 223.1,8.6 
			223,8.6 222.7,8.7 222.5,8.8 222.1,8.9 221.9,9 221.5,9.1 221.3,9.2 221.1,9.3 220.7,9.5 220.5,9.6 220.1,9.8 219.8,10 
			219.6,10.1 219.3,10.3 219,10.5 218.8,10.6 218.5,10.8 218.4,10.9 218.1,11.2 217.9,11.4 217.7,11.5 217.4,11.9 217.3,12 
			217.2,12.1 217.1,12.3 217,12.4 210.5,23.1 210.4,23.2 210.4,23.3 210.3,23.6 210.2,23.7 210.2,24 210.1,24.1 210.1,24.2 
			210.1,24.5 210.1,24.6 210.1,24.8 210.1,25 210.2,25.2 210.2,25.3 210.3,25.5 210.4,25.7 210.5,25.8 210.6,26 210.7,26.1 
			210.8,26.3 210.9,26.4 211,26.5 211.2,26.6 211.4,26.8 211.5,26.8 211.7,27 211.9,27.1 212.1,27.2 212.3,27.3 212.4,27.4 
			212.7,27.5 212.9,27.6 213.1,27.6 213.3,27.7 213.5,27.8 213.7,27.8 213.9,27.9 214.1,27.9 214.3,28 214.5,28 214.7,28 
			214.9,28.1 215.3,28.1 215.8,28.2 216,28.2 216.7,28.3 217,28.3 217.2,28.3 234.5,28.3 236,25.8 236.1,25.6 236.1,25.4 236,25.3 
					"/>
		<polygon class="st0" points="228.8,7.6 228.7,7.6 226.3,11.6 226.4,11.6 226.6,11.5 226.9,11.5 227,11.5 227.1,11.5 227.2,11.4 
			227.5,11.4 227.7,11.4 243.3,11.4 243.6,11.4 243.7,11.4 243.9,11.3 244,11.3 244.2,11.2 244.4,11.2 244.5,11.1 244.8,11 
			244.9,10.9 245.1,10.8 245.3,10.6 245.3,10.5 247.1,7.6 		"/>
		<polygon class="st0" points="157.8,26.6 169.3,7.7 163.2,7.7 162.8,7.7 162.7,7.7 162.5,7.8 162.3,7.8 162.2,7.9 162,7.9 161.9,8 
			161.8,8 161.6,8.1 161.5,8.2 161.4,8.3 161.3,8.4 161.2,8.6 155.2,18.4 155,18.8 154.9,18.9 		"/>
		<polygon class="st0" points="154.2,20.3 154.2,20.3 154.1,19.9 152.6,16 150.2,9.6 150.1,9.5 150,9.3 149.9,9.2 149.9,9.1 
			149.8,9 149.6,8.9 149.6,8.8 149.5,8.7 149.2,8.6 148.9,8.4 148.6,8.3 148.5,8.2 148.3,8.2 148.2,8.1 148,8 147.8,8 147.5,7.9 
			147.1,7.8 146.5,7.7 146.1,7.7 145.7,7.7 139.9,7.7 139.5,7.7 139.4,7.8 139.2,7.8 139,7.8 138.8,7.9 138.7,8 138.5,8 138.5,8.1 
			138.3,8.1 138.2,8.2 138.1,8.3 137.9,8.5 137.9,8.6 125.8,28.3 131.9,28.3 132.3,28.3 132.4,28.3 132.6,28.2 132.8,28.2 133,28.1 
			133.1,28.1 133.2,28 133.3,28 133.5,27.9 133.6,27.8 133.7,27.7 133.9,27.5 133.9,27.4 143.3,12.1 149.4,27.4 149.4,27.5 
			149.5,27.7 149.7,27.8 149.8,27.8 149.8,27.9 150,28 150.1,28.1 150.4,28.1 150.6,28.2 150.7,28.2 150.9,28.3 151.3,28.3 
			156.7,28.3 157,27.8 		"/>
	</g>
</g>
<g>
</g>
<g>
</g>
<g>
</g>
<g>
</g>
<g>
</g>
<g>
</g>
<g>
</g>
<g>
</g>
<g>
</g>
<g>
</g>
<g>
</g>
<g>
</g>
<g>
</g>
<g>
</g>
<g>
</g>
</svg>
