<?xml version="1.0" encoding="utf-8"?>
<svg version="1.1" xmlns="http://www.w3.org/2000/svg" xmlns:xlink="http://www.w3.org/1999/xlink" x="0px" y="0px"
	 width="1200px" height="1200px" viewBox="0 0 1200 1200" enable-background="new 0 0 1200 1200" xml:space="preserve">
	 <style type="text/css">
	 	.color{
		 	fill: white;
		 }
	 </style>
<g>
	<path class="color" d="M616.034,695.669l291.844-476.22c0.07-0.123,0.117-0.247,0.18-0.337c0.125-0.224,0.234-0.448,0.336-0.661
		c0.43-0.785,0.773-1.581,1.078-2.377c0.086-0.247,0.188-0.493,0.258-0.74c0.313-1.009,0.57-2.029,0.719-3.083
		c0.023-0.202,0.023-0.393,0.047-0.583c0.086-0.875,0.133-1.761,0.109-2.657c-0.023-0.303-0.023-0.605-0.055-0.908
		c-0.078-1.055-0.234-2.097-0.508-3.129c-0.047-0.179-0.109-0.325-0.156-0.516c-0.266-0.931-0.617-1.827-1.031-2.725
		c-0.07-0.157-0.102-0.303-0.18-0.448c-0.055-0.112-0.133-0.19-0.188-0.28c-0.094-0.18-0.156-0.37-0.258-0.55
		c-0.43-0.796-0.945-1.547-1.484-2.265c-0.141-0.157-0.281-0.28-0.422-0.471c-0.57-0.695-1.188-1.346-1.852-1.951
		c-0.234-0.202-0.438-0.403-0.688-0.594c-0.805-0.685-1.656-1.278-2.563-1.806c-0.172-0.09-0.313-0.157-0.477-0.235
		c-0.781-0.426-1.625-0.785-2.461-1.11c-0.281-0.101-0.578-0.201-0.852-0.28c-0.977-0.303-1.977-0.561-3.008-0.706
		c-0.125-0.022-0.25-0.022-0.359-0.033c-0.742-0.102-1.477-0.157-2.234-0.157H308.144c-6.805,0-13.063,3.678-16.391,9.608
		c-3.328,5.942-3.172,13.208,0.367,19.005l291.859,476.221c3.406,5.572,9.477,8.97,16.008,8.97
		C606.558,704.639,612.612,701.241,616.034,695.669z M341.706,228.396H811.69l-360.43,178.758L341.706,228.396z M470.972,439.322
		l370.766-183.87L600.003,649.878L470.972,439.322z"/>
	<path class="color" d="M1131.214,220.604h-55.68l71.695-116.967c3.555-5.808,3.695-13.073,0.367-18.993c-3.328-5.954-9.586-9.609-16.391-9.609
		H68.808c-6.805,0-13.078,3.655-16.391,9.609c-3.336,5.932-3.188,13.186,0.359,18.993l71.68,116.967H68.792
		c-6.805,0-13.07,3.678-16.391,9.609c-3.328,5.942-3.18,13.197,0.352,18.993l531.227,866.813c3.406,5.551,9.484,8.947,16.008,8.947
		c6.547,0,12.617-3.396,16.039-8.947l531.203-866.813c3.555-5.796,3.695-13.062,0.367-18.993
		C1144.269,224.293,1138.026,220.604,1131.214,220.604z M102.354,112.596h995.297L599.987,924.658L102.354,112.596z
		 M600.003,1070.238L102.354,258.177h45.141l436.508,712.25c3.406,5.572,9.484,8.97,16.008,8.97c6.547,0,12.617-3.397,16.031-8.97
		l436.5-712.25h45.148L600.003,1070.238z"/>
</g>
</svg>
