<?xml version="1.0" encoding="utf-8"?>
<!-- Generator: Adobe Illustrator 21.1.0, SVG Export Plug-In . SVG Version: 6.00 Build 0)  -->
<svg version="1.1" id="type" xmlns="http://www.w3.org/2000/svg" xmlns:xlink="http://www.w3.org/1999/xlink" x="0px" y="0px"
	 viewBox="0 0 347 36" style="enable-background:new 0 0 347 36;" xml:space="preserve">
<polygon points="35.9,0.7 35.4,0.7 35.1,0.7 34.7,0.7 33.5,0.8 32.7,0.9 31.9,1 31.4,1.1 30.3,1.2 29.5,1.4 28.5,1.6 28.1,1.7 
	27.7,1.8 27.3,1.9 26.6,2.1 26.2,2.2 25.5,2.4 25.2,2.5 24.8,2.7 24.2,2.9 23.9,3 23.2,3.3 22.9,3.4 22.6,3.6 22.3,3.7 21.7,4 
	21.5,4.2 21.1,4.3 20.8,4.5 20.3,4.9 20.1,5 19.8,5.2 19.1,5.7 18.6,6.1 18.4,6.3 18.2,6.5 17.8,6.9 17.7,7.1 17.5,7.3 17.3,7.5 
	17.2,7.7 17,8 13.7,13.3 13.6,13.5 13.5,13.7 13.5,13.9 13.4,14 13.4,14.3 13.3,14.6 13.3,14.8 13.3,15 13.4,15.2 13.5,15.5 
	13.6,15.7 13.7,16.1 13.9,16.3 14,16.4 14.2,16.6 14.3,16.7 14.5,16.9 14.7,17.1 14.9,17.2 15.1,17.3 15.6,17.6 15.9,17.8 
	16.2,17.9 16.5,18 17,18.2 17.3,18.3 44.5,23.7 42.4,27.1 42.2,27.4 42.2,27.5 42,27.6 41.9,27.7 41.8,27.8 41.7,27.9 41.5,28.1 
	41.4,28.2 41.2,28.3 41.1,28.4 40.9,28.5 40.7,28.6 40.5,28.6 40.1,28.8 39.7,29 39.3,29.1 39.1,29.2 38.7,29.3 38.2,29.4 38,29.4 
	37.9,29.4 37.7,29.5 37.2,29.5 36.8,29.5 6.5,29.5 6.1,29.6 5.7,29.6 5.4,29.7 5.2,29.7 4.7,29.8 4.4,30 4.1,30.1 3.8,30.3 
	3.5,30.4 3.2,30.7 3,30.9 -0.1,36 34.9,36 35.4,36 36.2,35.9 37,35.9 37.4,35.8 38.2,35.8 39,35.7 39.5,35.6 40.6,35.4 41,35.4 
	41.8,35.2 42.5,35 42.9,34.9 43.3,34.8 43.6,34.8 44,34.7 44.3,34.5 44.7,34.4 45.1,34.3 45.8,34.1 46.5,33.8 47.1,33.5 47.8,33.3 
	48.4,33 48.7,32.8 49,32.7 49.6,32.3 49.8,32.2 50.2,32 50.7,31.7 51,31.5 51.2,31.3 51.5,31.1 51.7,31 52,30.8 52.2,30.6 
	52.4,30.4 52.9,30 53.1,29.8 53.3,29.6 53.5,29.4 53.6,29.2 53.8,29 54.3,28.4 54.5,28.1 57.4,23.3 57.5,23.1 57.6,22.9 57.7,22.7 
	57.8,22.4 57.8,22.3 57.9,22 57.9,21.7 57.8,21.5 57.8,21.2 57.7,20.9 57.6,20.6 57.4,20.4 57.2,20.1 57.1,19.9 56.9,19.7 
	56.5,19.4 56.1,19.1 55.6,18.9 55.3,18.7 54.7,18.5 54.1,18.3 53.7,18.3 26.9,13 29.2,9.2 29.4,8.9 29.4,8.9 29.5,8.8 29.8,8.6 
	29.9,8.4 30,8.3 30.1,8.3 30.3,8.2 30.5,8.1 30.8,7.9 30.9,7.9 31.2,7.8 31.4,7.7 31.6,7.6 31.7,7.6 31.9,7.5 32.4,7.4 32.8,7.3 
	33,7.3 33.5,7.2 33.7,7.2 34.2,7.1 34.6,7.1 63.1,7.1 63.7,7 64.1,7 64.3,6.9 64.6,6.8 64.9,6.7 65.3,6.6 65.4,6.5 65.6,6.5 
	65.8,6.3 66,6.2 66.2,6 66.4,5.8 66.5,5.6 69.6,0.6 36.7,0.7 "/>
<polygon points="246.5,0.6 246.1,0.6 245.8,0.6 245.3,0.6 244.1,0.7 243.3,0.8 242.5,0.9 242.1,0.9 240.9,1.1 240.2,1.3 239.1,1.5 
	238.7,1.6 238.3,1.7 237.9,1.8 237.2,2 236.9,2.1 236.2,2.3 235.8,2.4 235.5,2.5 234.8,2.8 234.5,2.9 233.9,3.2 233.5,3.3 
	233.2,3.5 232.9,3.6 232.3,3.9 232.1,4 231.8,4.2 231.5,4.4 231,4.7 230.7,4.9 230.5,5.1 229.7,5.6 229.3,6 229.1,6.2 228.9,6.4 
	228.5,6.8 228.3,7 228.1,7.2 228,7.4 227.8,7.6 227.6,7.9 224.4,13.2 224.3,13.4 224.2,13.6 224.1,13.8 224,14 224,14.2 224,14.5 
	224,14.7 224,14.9 224,15.1 224.1,15.4 224.2,15.6 224.4,16 224.5,16.2 224.7,16.3 225,16.6 225.1,16.8 225.4,17 225.5,17.1 
	225.7,17.2 226.2,17.5 226.5,17.6 226.8,17.8 227.1,17.9 227.6,18 228,18.1 255.2,23.6 253.1,27 252.9,27.3 252.8,27.4 252.7,27.5 
	252.5,27.6 252.4,27.7 252.3,27.8 252.1,28 252,28 251.9,28.1 251.7,28.2 251.5,28.3 251.3,28.4 251.2,28.5 250.7,28.7 250.3,28.9 
	249.9,29 249.7,29.1 249.3,29.2 248.9,29.3 248.6,29.3 248.5,29.3 248.3,29.4 247.8,29.4 247.4,29.4 217.1,29.4 216.7,29.5 
	216.4,29.5 216,29.6 215.8,29.6 215.3,29.7 214.8,29.9 214.4,30.2 214.1,30.3 213.8,30.6 213.6,30.8 210.5,35.9 245.6,35.9 
	246,35.9 246.8,35.8 247.6,35.8 248.1,35.7 248.9,35.7 249.7,35.6 250.1,35.5 251.2,35.3 251.7,35.2 252.4,35.1 253.1,34.9 
	253.5,34.8 253.9,34.7 254.2,34.6 254.6,34.5 255,34.4 255.3,34.3 255.7,34.2 256.4,34 257.1,33.7 257.8,33.4 258.4,33.2 259,32.9 
	259.3,32.7 259.6,32.6 260.3,32.2 260.5,32.1 260.8,31.9 261.3,31.6 261.6,31.4 261.9,31.2 262.1,31 262.3,30.9 262.6,30.7 
	262.9,30.5 263.1,30.3 263.5,29.9 263.7,29.7 263.9,29.5 264.1,29.3 264.3,29.1 264.5,28.9 264.9,28.3 265.1,28 268,23.2 268.2,23 
	268.3,22.8 268.3,22.6 268.4,22.3 268.5,22.1 268.5,21.9 268.5,21.6 268.5,21.4 268.4,21 268.3,20.8 268.2,20.5 268,20.3 267.9,20 
	267.7,19.8 267.5,19.6 267.2,19.3 266.7,19 266.3,18.8 265.9,18.6 265.3,18.4 264.7,18.2 264.3,18.2 237.5,12.9 239.8,9.1 240,8.8 
	240,8.8 240.2,8.6 240.4,8.4 240.5,8.3 240.7,8.2 240.8,8.2 240.9,8.1 241.1,8 241.4,7.8 241.6,7.7 241.8,7.7 242,7.6 242.2,7.5 
	242.4,7.5 242.5,7.4 243,7.3 243.4,7.2 243.7,7.2 244.2,7.1 244.3,7.1 244.8,7 245.3,7 273.7,7 274.4,6.9 274.7,6.9 274.9,6.8 
	275.3,6.7 275.6,6.6 275.9,6.5 276,6.4 276.2,6.3 276.5,6.2 276.6,6 276.8,5.9 277,5.7 277.2,5.5 280.2,0.5 247.3,0.5 "/>
<polygon points="93.5,21.5 119.5,21.5 120.2,21.4 120.7,21.3 121,21.2 121.4,21.1 121.6,21 121.7,20.9 121.9,20.9 122.2,20.7 
	122.4,20.6 122.6,20.5 122.9,20.2 123,20 126,15 97.4,15 "/>
<polygon points="118.6,30.6 118.5,30.5 118.2,30.2 117.9,30.1 117.7,29.9 117.2,29.7 116.7,29.6 116.3,29.5 115.9,29.5 89.3,29.5 
	88.8,29.5 88.4,29.5 88.3,29.4 88.2,29.4 88.2,29.4 87.9,29.3 87.8,29.3 87.7,29.2 87.6,29.2 87.5,29.1 87.4,29 87.3,29 87.3,28.9 
	87.3,28.8 87.3,28.8 87.2,28.7 87.2,28.5 87.2,28.5 87.2,28.4 87.2,28.3 87.3,28.2 87.4,28.1 87.4,28 89.1,25.3 89.1,25.2 
	91.4,21.5 95.3,15 95.3,15 98.7,9.5 98.8,9.4 98.9,9.2 104.1,0.7 103,0.8 101.8,1 101.3,1.1 100.5,1.2 100.1,1.3 99.7,1.4 99,1.5 
	98.5,1.7 98.2,1.7 97.8,1.8 97.5,1.9 97,2.1 96.6,2.2 96.4,2.3 95.9,2.4 95.5,2.5 94.8,2.8 94.5,2.9 93.8,3.2 93.5,3.4 93.1,3.5 
	92.5,3.8 92.1,4 91.5,4.3 90.9,4.6 90.6,4.8 90.1,5.1 89.5,5.5 89.2,5.7 88.7,6.1 88.5,6.3 88,6.7 87.6,7.1 87.4,7.3 86.8,7.9 
	86.6,8.1 86.5,8.3 86.3,8.5 86.2,8.7 75,27 74.9,27.3 74.8,27.5 74.6,27.9 74.5,28.1 74.4,28.6 74.4,28.7 74.3,29 74.3,29.4 
	74.3,29.6 74.3,30 74.4,30.3 74.5,30.7 74.5,30.9 74.7,31.2 74.9,31.6 75,31.8 75.1,32 75.3,32.2 75.6,32.5 75.7,32.7 75.9,32.9 
	76.1,33.1 76.5,33.4 76.7,33.5 77,33.7 77.4,34 77.8,34.1 78,34.3 78.3,34.4 78.8,34.6 79.1,34.7 79.5,34.9 79.8,35 80.1,35.1 
	80.4,35.1 80.7,35.2 81.1,35.3 81.4,35.4 81.7,35.5 82.2,35.6 82.5,35.6 83.3,35.7 84,35.8 84.4,35.9 85.6,35.9 86.1,36 86.5,36 
	116.1,35.9 118.6,31.8 118.8,31.5 118.8,31.1 118.7,30.8 "/>
<polygon points="106.1,0.6 102,7.5 102.1,7.4 102.6,7.3 103.1,7.2 103.3,7.2 103.4,7.2 103.6,7.1 104.1,7.1 104.5,7.1 131.2,7.1 
	131.7,7 131.8,7 132.1,6.9 132.4,6.9 132.7,6.8 133,6.7 133.2,6.6 133.6,6.4 133.9,6.2 134.3,6 134.5,5.7 134.6,5.6 137.7,0.6 
	106.3,0.6 "/>
<polygon points="302.5,21.4 328.5,21.4 329.1,21.3 329.6,21.2 329.9,21.1 330.4,21 330.5,20.9 330.7,20.8 330.8,20.8 331.1,20.6 
	331.3,20.5 331.5,20.4 331.8,20 331.9,19.9 334.9,14.9 306.4,14.9 "/>
<polygon points="327.6,30.7 327.5,30.5 327.4,30.4 327.1,30.1 326.9,29.9 326.6,29.8 326.1,29.6 325.6,29.5 325.2,29.4 324.8,29.4 
	298.2,29.4 297.7,29.4 297.4,29.3 297.3,29.3 297.1,29.3 297.1,29.3 296.8,29.2 296.7,29.2 296.6,29.1 296.5,29.1 296.4,29 
	296.3,28.9 296.3,28.9 296.2,28.8 296.2,28.7 296.2,28.7 296.1,28.6 296.1,28.4 296.1,28.4 296.1,28.3 296.2,28.2 296.2,28.1 
	296.3,28 296.3,27.9 298,25.1 298,25.1 300.3,21.4 304.2,14.9 304.2,14.9 307.6,9.4 307.7,9.2 307.8,9.1 313,0.6 311.9,0.7 
	310.7,0.9 310.2,1 309.4,1.1 309,1.2 308.7,1.3 307.9,1.4 307.4,1.5 307.1,1.6 306.7,1.7 306.4,1.8 305.9,2 305.6,2.1 305.3,2.2 
	304.8,2.3 304.5,2.4 303.8,2.7 303.4,2.8 302.7,3.1 302.4,3.2 302,3.4 301.4,3.7 301.1,3.9 300.4,4.2 299.8,4.5 299.5,4.7 299,5 
	298.4,5.4 298.1,5.6 297.7,6 297.4,6.2 296.9,6.6 296.5,6.9 296.3,7.2 295.7,7.8 295.5,8 295.4,8.2 295.2,8.4 295.1,8.6 283.9,26.9 
	283.8,27.2 283.7,27.4 283.5,27.8 283.4,28 283.3,28.4 283.3,28.6 283.2,28.8 283.2,29.3 283.2,29.5 283.2,29.9 283.3,30.2 
	283.4,30.5 283.4,30.8 283.6,31.1 283.8,31.5 283.9,31.7 284,31.9 284.2,32.1 284.5,32.4 284.6,32.6 284.8,32.8 285.1,33 
	285.4,33.2 285.6,33.4 285.9,33.6 286.4,33.9 286.7,34 286.9,34.1 287.2,34.3 287.7,34.5 288.1,34.6 288.4,34.7 288.7,34.9 
	289,34.9 289.3,35 289.7,35.1 290,35.2 290.3,35.3 290.7,35.4 291.1,35.4 291.4,35.5 292.2,35.6 292.9,35.7 293.3,35.7 294.5,35.8 
	295,35.8 295.4,35.8 325,35.8 327.5,31.7 327.7,31.3 327.7,31 "/>
<polygon points="315.2,0.5 315,0.5 310.9,7.3 311.1,7.3 311.5,7.2 312,7.1 312.2,7.1 312.3,7 312.5,7 313,7 313.4,7 340.1,7 
	340.6,6.9 340.8,6.9 341,6.8 341.3,6.8 341.6,6.7 341.9,6.6 342.2,6.5 342.6,6.3 342.8,6.1 343.2,5.9 343.4,5.6 343.6,5.4 
	346.6,0.5 "/>
<polygon points="202.9,0.6 202.2,0.7 202.1,0.7 201.8,0.7 201.4,0.8 201.1,0.9 200.9,1 200.6,1.1 200.5,1.2 200.2,1.3 200.1,1.5 
	199.9,1.6 199.6,1.9 199.5,2.1 189.1,19 188.8,19.7 188.7,19.8 193.6,32.9 213.4,0.6 "/>
<polygon points="187.5,22.1 187.3,21.5 184.8,14.9 180.6,3.8 180.5,3.7 180.4,3.4 180.2,3.1 180.1,3 179.9,2.8 179.7,2.6 179.5,2.5 
	179.4,2.4 178.9,2.1 178.4,1.8 177.9,1.6 177.7,1.5 177.4,1.4 177.1,1.3 176.8,1.2 176.5,1.1 176,1 175.3,0.8 174.3,0.7 173.7,0.6 
	173,0.6 163,0.6 162.3,0.7 162.1,0.7 161.8,0.8 161.4,0.9 161.2,0.9 160.9,1 160.7,1.2 160.6,1.2 160.3,1.3 160.1,1.5 160,1.6 
	159.6,1.9 159.5,2.1 138.9,35.9 149.3,35.9 150,35.8 150.2,35.8 150.5,35.8 150.8,35.7 151.2,35.5 151.4,35.5 151.5,35.4 
	151.7,35.3 152,35.2 152.2,35 152.3,34.9 152.6,34.6 152.8,34.4 168.9,8.1 179.2,34.3 179.3,34.6 179.5,34.8 179.7,35 179.9,35.1 
	180,35.2 180.3,35.3 180.5,35.5 180.9,35.6 181.3,35.7 181.6,35.8 181.8,35.8 182.5,35.9 191.8,35.9 192.4,35 187.6,22.1 "/>
<g>
</g>
<g>
</g>
<g>
</g>
<g>
</g>
<g>
</g>
<g>
</g>
<g>
</g>
<g>
</g>
<g>
</g>
<g>
</g>
<g>
</g>
<g>
</g>
<g>
</g>
<g>
</g>
<g>
</g>
</svg>
